<svg id="Capa_1" data-name="Capa 1" xmlns="http://www.w3.org/2000/svg" viewBox="0 0 501.31 494.38"><defs><style>.cls-1,.cls-2{fill:none;stroke:#211915;stroke-linecap:round;stroke-width:25px;}.cls-1{stroke-linejoin:round;}.cls-2{stroke-miterlimit:10;}</style></defs><title>buy</title><polyline class="cls-1" points="488.81 85.29 416.41 85.29 382 206.94 347.58 328.59 58.92 328.59 25.93 206.94 12.5 157.42 395.97 157.53"/><path class="cls-1" d="M193.34,522.55H421.8a30.66,30.66,0,0,1,30.66,30.66v3.16A30.66,30.66,0,0,1,421.8,587H159.42" transform="translate(-54.64 -193.96)"/><rect class="cls-1" x="57.77" y="393.07" width="88.81" height="88.81" rx="44.41"/><rect class="cls-1" x="270.2" y="393.07" width="88.81" height="88.81" rx="44.41"/><line class="cls-1" x1="104.77" y1="328.59" x2="178.65" y2="328.59"/><polyline class="cls-1" points="25.93 206.94 78.96 206.94 208.72 206.94 382 206.94"/><line class="cls-1" x1="37.06" y1="247.97" x2="370.39" y2="247.97"/><line class="cls-1" x1="96.64" y1="437.49" x2="107.71" y2="437.49"/><line class="cls-1" x1="309.07" y1="437.48" x2="320.15" y2="437.48"/><line class="cls-2" x1="202.96" y1="92.83" x2="202.96" y2="12.5"/><line class="cls-2" x1="202.96" y1="92.83" x2="237.51" y2="52.65"/><line class="cls-2" x1="202.96" y1="92.83" x2="168.41" y2="52.65"/></svg>