<?xml version="1.0" encoding="UTF-8" standalone="no"?>
<!-- Created with Inkscape (http://www.inkscape.org/) -->

<svg
   xmlns:dc="http://purl.org/dc/elements/1.1/"
   xmlns:cc="http://creativecommons.org/ns#"
   xmlns:rdf="http://www.w3.org/1999/02/22-rdf-syntax-ns#"
   xmlns:svg="http://www.w3.org/2000/svg"
   xmlns="http://www.w3.org/2000/svg"
   xmlns:sodipodi="http://sodipodi.sourceforge.net/DTD/sodipodi-0.dtd"
   xmlns:inkscape="http://www.inkscape.org/namespaces/inkscape"
   width="5.6250415mm"
   height="6.3783002mm"
   viewBox="0 0 5.6250415 6.3783003"
   version="1.1"
   id="svg588"
   inkscape:version="0.92.3 (2405546, 2018-03-11)"
   sodipodi:docname="more.svg">
  <defs
     id="defs582">
    <clipPath
       clipPathUnits="userSpaceOnUse"
       id="clipPath824">
      <path
         d="M 0,938.988 H 2027.408 V 0 H 0 Z"
         id="path822"
         inkscape:connector-curvature="0" />
    </clipPath>
  </defs>
  <sodipodi:namedview
     id="base"
     pagecolor="#ffffff"
     bordercolor="#666666"
     borderopacity="1.0"
     inkscape:pageopacity="0.0"
     inkscape:pageshadow="2"
     inkscape:zoom="11.2"
     inkscape:cx="5.5702384"
     inkscape:cy="11.533436"
     inkscape:document-units="mm"
     inkscape:current-layer="layer1"
     showgrid="false"
     showguides="false"
     inkscape:window-width="1366"
     inkscape:window-height="717"
     inkscape:window-x="0"
     inkscape:window-y="26"
     inkscape:window-maximized="1" />
  <metadata
     id="metadata585">
    <rdf:RDF>
      <cc:Work
         rdf:about="">
        <dc:format>image/svg+xml</dc:format>
        <dc:type
           rdf:resource="http://purl.org/dc/dcmitype/StillImage" />
        <dc:title></dc:title>
      </cc:Work>
    </rdf:RDF>
  </metadata>
  <g
     inkscape:label="Capa 1"
     inkscape:groupmode="layer"
     id="layer1"
     transform="translate(-41.032713,-54.69776)">
    <g
       transform="matrix(0.35277777,0,0,-0.35277777,-647.18066,318.46194)"
       id="g818">
      <g
         id="g820"
         clip-path="url(#clipPath824)">
        <g
           id="g826"
           transform="translate(1953.5591,736.6844)">
          <path
             d="m 0,0 h -1.528 c -0.657,0 -1.19,0.533 -1.19,1.19 v 1.528 c 0,0.657 0.533,1.189 1.19,1.189 H 0 c 0.657,0 1.19,-0.532 1.19,-1.189 V 1.19 C 1.19,0.533 0.657,0 0,0"
             style="fill:#4b4b4f;fill-opacity:1;fill-rule:nonzero;stroke:none"
             id="path828"
             inkscape:connector-curvature="0" />
        </g>
        <g
           id="g830"
           transform="translate(1959.5961,736.6844)">
          <path
             d="m 0,0 h -1.528 c -0.657,0 -1.19,0.533 -1.19,1.19 v 1.528 c 0,0.657 0.533,1.189 1.19,1.189 H 0 c 0.657,0 1.19,-0.532 1.19,-1.189 V 1.19 C 1.19,0.533 0.657,0 0,0"
             style="fill:#4b4b4f;fill-opacity:1;fill-rule:nonzero;stroke:none"
             id="path832"
             inkscape:connector-curvature="0" />
        </g>
        <g
           id="g834"
           transform="translate(1965.5961,736.6844)">
          <path
             d="m 0,0 h -1.528 c -0.657,0 -1.19,0.533 -1.19,1.19 v 1.528 c 0,0.657 0.533,1.189 1.19,1.189 H 0 c 0.657,0 1.19,-0.532 1.19,-1.189 V 1.19 C 1.19,0.533 0.657,0 0,0"
             style="fill:#4b4b4f;fill-opacity:1;fill-rule:nonzero;stroke:none"
             id="path836"
             inkscape:connector-curvature="0" />
        </g>
      </g>
    </g>
  </g>
</svg>
