<svg id="visual" viewBox="0 0 960 540" width="960" height="540" xmlns="http://www.w3.org/2000/svg" xmlns:xlink="http://www.w3.org/1999/xlink" version="1.1"><rect x="0" y="0" width="960" height="540" fill="#e3e3e3"></rect><path d="M0 381L137 383L274 339L411 346L549 314L686 384L823 400L960 387L960 541L823 541L686 541L549 541L411 541L274 541L137 541L0 541Z" fill="#890000"></path><path d="M0 401L137 392L274 389L411 357L549 418L686 418L823 383L960 413L960 541L823 541L686 541L549 541L411 541L274 541L137 541L0 541Z" fill="#760004"></path><path d="M0 453L137 431L274 398L411 409L549 406L686 451L823 418L960 402L960 541L823 541L686 541L549 541L411 541L274 541L137 541L0 541Z" fill="#620006"></path><path d="M0 473L137 454L274 440L411 452L549 437L686 474L823 487L960 468L960 541L823 541L686 541L549 541L411 541L274 541L137 541L0 541Z" fill="#4f0004"></path><path d="M0 486L137 495L274 487L411 492L549 481L686 491L823 482L960 506L960 541L823 541L686 541L549 541L411 541L274 541L137 541L0 541Z" fill="#3c0000"></path></svg>