<?xml version="1.0" encoding="UTF-8" standalone="no"?>
<svg
   xmlns:dc="http://purl.org/dc/elements/1.1/"
   xmlns:cc="http://creativecommons.org/ns#"
   xmlns:rdf="http://www.w3.org/1999/02/22-rdf-syntax-ns#"
   xmlns:svg="http://www.w3.org/2000/svg"
   xmlns="http://www.w3.org/2000/svg"
   xmlns:sodipodi="http://sodipodi.sourceforge.net/DTD/sodipodi-0.dtd"
   xmlns:inkscape="http://www.inkscape.org/namespaces/inkscape"
   id="flag-icon-css-us"
   viewBox="0 0 640 480"
   version="1.1"
   sodipodi:docname="us.3cc0d38b.svg"
   inkscape:version="0.92.3 (2405546, 2018-03-11)">
  <metadata
     id="metadata181">
    <rdf:RDF>
      <cc:Work
         rdf:about="">
        <dc:format>image/svg+xml</dc:format>
        <dc:type
           rdf:resource="http://purl.org/dc/dcmitype/StillImage" />
      </cc:Work>
    </rdf:RDF>
  </metadata>
  <defs
     id="defs179">
    <clipPath
       clipPathUnits="userSpaceOnUse"
       id="clipPath243">
      <path
         style="fill:none;stroke:#000000;stroke-width:1px;stroke-linecap:butt;stroke-linejoin:miter;stroke-opacity:1"
         d="M 640,3 0,487.38491 l 649.20083,2.01407 z"
         id="path245"
         inkscape:connector-curvature="0" />
    </clipPath>
  </defs>
  <sodipodi:namedview
     pagecolor="#ffffff"
     bordercolor="#666666"
     borderopacity="1"
     objecttolerance="10"
     gridtolerance="10"
     guidetolerance="10"
     inkscape:pageopacity="0"
     inkscape:pageshadow="2"
     inkscape:window-width="1600"
     inkscape:window-height="850"
     id="namedview177"
     showgrid="false"
     inkscape:zoom="0.74476183"
     inkscape:cx="277.65761"
     inkscape:cy="328.07242"
     inkscape:window-x="0"
     inkscape:window-y="26"
     inkscape:window-maximized="1"
     inkscape:current-layer="flag-icon-css-us" />
  <g
     id="g174"
     fill-rule="evenodd">
    <g
       id="g168"
       stroke-width="1pt">
      <path
         d="M0 0h972.8v39.4H0zm0 78.8h972.8v39.4H0zm0 78.7h972.8V197H0zm0 78.8h972.8v39.4H0zm0 78.8h972.8v39.4H0zm0 78.7h972.8v39.4H0zm0 78.8h972.8V512H0z"
         transform="scale(.9375)"
         id="path164"
         fill="#bd3d44" />
      <path
         d="M0 39.4h972.8v39.4H0zm0 78.8h972.8v39.3H0zm0 78.7h972.8v39.4H0zm0 78.8h972.8v39.4H0zm0 78.8h972.8v39.4H0zm0 78.7h972.8v39.4H0z"
         transform="scale(.9375)"
         id="path166"
         fill="#fff" />
    </g>
    <path
       d="M0 0h389.1v275.7H0z"
       transform="scale(.9375)"
       id="path170"
       fill="#192f5d" />
    <path
       d="M32.4 11.8L36 22.7h11.4l-9.2 6.7 3.5 11-9.3-6.8-9.2 6.7 3.5-10.9-9.3-6.7H29zm64.9 0l3.5 10.9h11.5l-9.3 6.7 3.5 11-9.2-6.8-9.3 6.7 3.5-10.9-9.2-6.7h11.4zm64.8 0l3.6 10.9H177l-9.2 6.7 3.5 11-9.3-6.8-9.2 6.7 3.5-10.9-9.3-6.7h11.5zm64.9 0l3.5 10.9H242l-9.3 6.7 3.6 11-9.3-6.8-9.3 6.7 3.6-10.9-9.3-6.7h11.4zm64.8 0l3.6 10.9h11.4l-9.2 6.7 3.5 11-9.3-6.8-9.2 6.7 3.5-10.9-9.2-6.7h11.4zm64.9 0l3.5 10.9h11.5l-9.3 6.7 3.6 11-9.3-6.8-9.3 6.7 3.6-10.9-9.3-6.7h11.5zM64.9 39.4l3.5 10.9h11.5L70.6 57 74 67.9l-9-6.7-9.3 6.7L59 57l-9-6.7h11.4zm64.8 0l3.6 10.9h11.4l-9.3 6.7 3.6 10.9-9.3-6.7-9.3 6.7L124 57l-9.3-6.7h11.5zm64.9 0l3.5 10.9h11.5l-9.3 6.7 3.5 10.9-9.2-6.7-9.3 6.7 3.5-10.9-9.2-6.7H191zm64.8 0l3.6 10.9h11.4l-9.3 6.7 3.6 10.9-9.3-6.7-9.2 6.7 3.5-10.9-9.3-6.7H256zm64.9 0l3.5 10.9h11.5L330 57l3.5 10.9-9.2-6.7-9.3 6.7 3.5-10.9-9.2-6.7h11.4zM32.4 66.9L36 78h11.4l-9.2 6.7 3.5 10.9-9.3-6.8-9.2 6.8 3.5-11-9.3-6.7H29zm64.9 0l3.5 11h11.5l-9.3 6.7 3.5 10.9-9.2-6.8-9.3 6.8 3.5-11-9.2-6.7h11.4zm64.8 0l3.6 11H177l-9.2 6.7 3.5 10.9-9.3-6.8-9.2 6.8 3.5-11-9.3-6.7h11.5zm64.9 0l3.5 11H242l-9.3 6.7 3.6 10.9-9.3-6.8-9.3 6.8 3.6-11-9.3-6.7h11.4zm64.8 0l3.6 11h11.4l-9.2 6.7 3.5 10.9-9.3-6.8-9.2 6.8 3.5-11-9.2-6.7h11.4zm64.9 0l3.5 11h11.5l-9.3 6.7 3.6 10.9-9.3-6.8-9.3 6.8 3.6-11-9.3-6.7h11.5zM64.9 94.5l3.5 10.9h11.5l-9.3 6.7 3.5 11-9.2-6.8-9.3 6.7 3.5-10.9-9.2-6.7h11.4zm64.8 0l3.6 10.9h11.4l-9.3 6.7 3.6 11-9.3-6.8-9.3 6.7 3.6-10.9-9.3-6.7h11.5zm64.9 0l3.5 10.9h11.5l-9.3 6.7 3.5 11-9.2-6.8-9.3 6.7 3.5-10.9-9.2-6.7H191zm64.8 0l3.6 10.9h11.4l-9.2 6.7 3.5 11-9.3-6.8-9.2 6.7 3.5-10.9-9.3-6.7H256zm64.9 0l3.5 10.9h11.5l-9.3 6.7 3.5 11-9.2-6.8-9.3 6.7 3.5-10.9-9.2-6.7h11.4zM32.4 122.1L36 133h11.4l-9.2 6.7 3.5 11-9.3-6.8-9.2 6.7 3.5-10.9-9.3-6.7H29zm64.9 0l3.5 10.9h11.5l-9.3 6.7 3.5 10.9-9.2-6.7-9.3 6.7 3.5-10.9-9.2-6.7h11.4zm64.8 0l3.6 10.9H177l-9.2 6.7 3.5 11-9.3-6.8-9.2 6.7 3.5-10.9-9.3-6.7h11.5zm64.9 0l3.5 10.9H242l-9.3 6.7 3.6 11-9.3-6.8-9.3 6.7 3.6-10.9-9.3-6.7h11.4zm64.8 0l3.6 10.9h11.4l-9.2 6.7 3.5 11-9.3-6.8-9.2 6.7 3.5-10.9-9.2-6.7h11.4zm64.9 0l3.5 10.9h11.5l-9.3 6.7 3.6 11-9.3-6.8-9.3 6.7 3.6-10.9-9.3-6.7h11.5zM64.9 149.7l3.5 10.9h11.5l-9.3 6.7 3.5 10.9-9.2-6.8-9.3 6.8 3.5-11-9.2-6.7h11.4zm64.8 0l3.6 10.9h11.4l-9.3 6.7 3.6 10.9-9.3-6.8-9.3 6.8 3.6-11-9.3-6.7h11.5zm64.9 0l3.5 10.9h11.5l-9.3 6.7 3.5 10.9-9.2-6.8-9.3 6.8 3.5-11-9.2-6.7H191zm64.8 0l3.6 10.9h11.4l-9.2 6.7 3.5 10.9-9.3-6.8-9.2 6.8 3.5-11-9.3-6.7H256zm64.9 0l3.5 10.9h11.5l-9.3 6.7 3.5 10.9-9.2-6.8-9.3 6.8 3.5-11-9.2-6.7h11.4zM32.4 177.2l3.6 11h11.4l-9.2 6.7 3.5 10.8-9.3-6.7-9.2 6.7 3.5-10.9-9.3-6.7H29zm64.9 0l3.5 11h11.5l-9.3 6.7 3.6 10.8-9.3-6.7-9.3 6.7 3.6-10.9-9.3-6.7h11.4zm64.8 0l3.6 11H177l-9.2 6.7 3.5 10.8-9.3-6.7-9.2 6.7 3.5-10.9-9.3-6.7h11.5zm64.9 0l3.5 11H242l-9.3 6.7 3.6 10.8-9.3-6.7-9.3 6.7 3.6-10.9-9.3-6.7h11.4zm64.8 0l3.6 11h11.4l-9.2 6.7 3.5 10.8-9.3-6.7-9.2 6.7 3.5-10.9-9.2-6.7h11.4zm64.9 0l3.5 11h11.5l-9.3 6.7 3.6 10.8-9.3-6.7-9.3 6.7 3.6-10.9-9.3-6.7h11.5zM64.9 204.8l3.5 10.9h11.5l-9.3 6.7 3.5 11-9.2-6.8-9.3 6.7 3.5-10.9-9.2-6.7h11.4zm64.8 0l3.6 10.9h11.4l-9.3 6.7 3.6 11-9.3-6.8-9.3 6.7 3.6-10.9-9.3-6.7h11.5zm64.9 0l3.5 10.9h11.5l-9.3 6.7 3.5 11-9.2-6.8-9.3 6.7 3.5-10.9-9.2-6.7H191zm64.8 0l3.6 10.9h11.4l-9.2 6.7 3.5 11-9.3-6.8-9.2 6.7 3.5-10.9-9.3-6.7H256zm64.9 0l3.5 10.9h11.5l-9.3 6.7 3.5 11-9.2-6.8-9.3 6.7 3.5-10.9-9.2-6.7h11.4zM32.4 232.4l3.6 10.9h11.4l-9.2 6.7 3.5 10.9-9.3-6.7-9.2 6.7 3.5-11-9.3-6.7H29zm64.9 0l3.5 10.9h11.5L103 250l3.6 10.9-9.3-6.7-9.3 6.7 3.6-11-9.3-6.7h11.4zm64.8 0l3.6 10.9H177l-9 6.7 3.5 10.9-9.3-6.7-9.2 6.7 3.5-11-9.3-6.7h11.5zm64.9 0l3.5 10.9H242l-9.3 6.7 3.6 10.9-9.3-6.7-9.3 6.7 3.6-11-9.3-6.7h11.4zm64.8 0l3.6 10.9h11.4l-9.2 6.7 3.5 10.9-9.3-6.7-9.2 6.7 3.5-11-9.2-6.7h11.4zm64.9 0l3.5 10.9h11.5l-9.3 6.7 3.6 10.9-9.3-6.7-9.3 6.7 3.6-11-9.3-6.7h11.5z"
       transform="scale(.9375)"
       id="path172"
       fill="#fff" />
  </g>
  <g
     id="g205"
     clip-path="url(#clipPath243)">
    <path
       id="path183"
       d="M 0,0 H 640 V 480 H 0 Z"
       inkscape:connector-curvature="0"
       style="fill:#012169" />
    <path
       id="path185"
       d="M 75,0 319,181 562,0 h 78 V 62 L 400,241 640,419 v 61 H 560 L 320,301 81,480 H 0 V 420 L 239,242 0,64 V 0 Z"
       inkscape:connector-curvature="0"
       style="fill:#ffffff" />
    <path
       id="path187"
       d="m 424,281 216,159 v 40 L 369,281 Z m -184,20 6,35 L 54,480 H 0 Z M 640,0 V 3 L 391,191 393,147 590,0 Z M 0,0 239,176 H 179 L 0,42 Z"
       inkscape:connector-curvature="0"
       style="fill:#c8102e" />
    <path
       id="path189"
       d="M 241,0 V 480 H 401 V 0 Z M 0,160 V 320 H 640 V 160 Z"
       inkscape:connector-curvature="0"
       style="fill:#ffffff" />
    <path
       id="path191"
       d="m 0,193 v 96 H 640 V 193 Z M 273,0 v 480 h 96 V 0 Z"
       inkscape:connector-curvature="0"
       style="fill:#c8102e" />
  </g>
</svg>
