<svg xmlns="http://www.w3.org/2000/svg" viewBox="0 0 424.94 423.77"><defs><style>.cls-1{fill:#fff;}.cls-1,.cls-2,.cls-3,.cls-4{stroke:#211915;stroke-width:25px;}.cls-1,.cls-2,.cls-3{stroke-miterlimit:10;}.cls-2,.cls-3,.cls-4{fill:none;}.cls-3,.cls-4{stroke-linecap:round;}.cls-4{stroke-miterlimit:410;}</style></defs><title>withdraw</title><g id="Capa_1" data-name="Capa 1"><path class="cls-1" d="M201.42,319.32" transform="translate(-74.1 -129.59)"/><path class="cls-2" d="M201.42,319.32H125a.88.88,0,0,1-.88-.88V143a.88.88,0,0,1,.88-.88H485.66a.87.87,0,0,1,.88.88V318.44a.87.87,0,0,1-.88.88H409.25" transform="translate(-74.1 -129.59)"/><path class="cls-2" d="M201.42,230.49V537.43a3.43,3.43,0,0,0,3.42,3.43h201a3.44,3.44,0,0,0,3.43-3.43V230.49" transform="translate(-74.1 -129.59)"/><path class="cls-3" d="M319,386H286.61a20.12,20.12,0,0,1-19.88-20.34v-3.76a20.12,20.12,0,0,1,19.88-20.34h58.73" transform="translate(-74.1 -129.59)"/><path class="cls-4" d="M286.52,385.79H323c12.37,0,22.39,9,22.39,20.19v3.73c0,11.14-10,20.18-22.39,20.18H266.73" transform="translate(-74.1 -129.59)"/><line class="cls-3" x1="236.15" y1="189.47" x2="236.15" y2="207.93"/><line class="cls-3" x1="236.15" y1="303.97" x2="236.15" y2="322.43"/><line class="cls-3" x1="90.7" y1="100.91" x2="371.76" y2="100.91"/><line class="cls-3" x1="47.05" y1="359.84" x2="47.05" y2="251.18"/><line class="cls-3" x1="47.05" y1="359.84" x2="81.6" y2="319.66"/><line class="cls-3" x1="47.05" y1="359.84" x2="12.5" y2="319.66"/></g></svg>