<svg id="visual" viewBox="0 0 960 540" width="960" height="540" xmlns="http://www.w3.org/2000/svg" xmlns:xlink="http://www.w3.org/1999/xlink" version="1.1"><rect width="960" height="540" fill="#eeeeee"></rect><g><g transform="translate(554 412)"><path d="M0 -72.8L69.3 -22.5L42.8 58.9L-42.8 58.9L-69.3 -22.5Z" fill="none" stroke="#808080" stroke-width="2"></path></g><g transform="translate(566 186)"><path d="M0 -49L46.6 -15.1L28.8 39.6L-28.8 39.6L-46.6 -15.1Z" fill="none" stroke="#808080" stroke-width="2"></path></g><g transform="translate(870 457)"><path d="M0 -41L39 -12.7L24.1 33.2L-24.1 33.2L-39 -12.7Z" stroke="#808080" fill="none" stroke-width="2"></path></g><g transform="translate(326 210)"><path d="M0 -23L21.9 -7.1L13.5 18.6L-13.5 18.6L-21.9 -7.1Z" stroke="#808080" fill="none" stroke-width="2"></path></g><g transform="translate(59 364)"><path d="M0 -19L18.1 -5.9L11.2 15.4L-11.2 15.4L-18.1 -5.9Z" stroke="#808080" fill="none" stroke-width="2"></path></g><g transform="translate(546 38)"><path d="M0 -61L58 -18.9L35.9 49.4L-35.9 49.4L-58 -18.9Z" stroke="#808080" fill="none" stroke-width="2"></path></g><g transform="translate(414 474)"><path d="M0 -68L64.7 -21L40 55L-40 55L-64.7 -21Z" stroke="#808080" fill="none" stroke-width="2"></path></g><g transform="translate(769 299)"><path d="M0 -55L52.3 -17L32.3 44.5L-32.3 44.5L-52.3 -17Z" stroke="#808080" fill="none" stroke-width="2"></path></g><g transform="translate(237 343)"><path d="M0 -25L23.8 -7.7L14.7 20.2L-14.7 20.2L-23.8 -7.7Z" stroke="#808080" fill="none" stroke-width="2"></path></g><g transform="translate(326 38)"><path d="M0 -19L18.1 -5.9L11.2 15.4L-11.2 15.4L-18.1 -5.9Z" stroke="#808080" fill="none" stroke-width="2"></path></g><g transform="translate(92 160)"><path d="M0 -38L36.1 -11.7L22.3 30.7L-22.3 30.7L-36.1 -11.7Z" stroke="#808080" fill="none" stroke-width="2"></path></g><g transform="translate(721 522)"><path d="M0 -15L14.3 -4.6L8.8 12.1L-8.8 12.1L-14.3 -4.6Z" stroke="#808080" fill="none" stroke-width="2"></path></g><g transform="translate(864 37)"><path d="M0 -68L64.7 -21L40 55L-40 55L-64.7 -21Z" stroke="#808080" fill="none" stroke-width="2"></path></g><g transform="translate(58 523)"><path d="M0 -66L62.8 -20.4L38.8 53.4L-38.8 53.4L-62.8 -20.4Z" stroke="#808080" fill="none" stroke-width="2"></path></g><g transform="translate(733 150)"><path d="M0 -38L36.1 -11.7L22.3 30.7L-22.3 30.7L-36.1 -11.7Z" stroke="#808080" fill="none" stroke-width="2"></path></g><g transform="translate(912 220)"><path d="M0 -25L23.8 -7.7L14.7 20.2L-14.7 20.2L-23.8 -7.7Z" stroke="#808080" fill="none" stroke-width="2"></path></g><g transform="translate(250 515)"><path d="M0 -21L20 -6.5L12.3 17L-12.3 17L-20 -6.5Z" stroke="#808080" fill="none" stroke-width="2"></path></g></g></svg>