<svg id="visual" viewBox="0 0 960 540" width="960" height="540" xmlns="http://www.w3.org/2000/svg" xmlns:xlink="http://www.w3.org/1999/xlink" version="1.1"><rect width="960" height="540" fill="#eeeeee"></rect><g><g transform="translate(918 195)"><path d="M0 -64.4L50.3 -40.1L62.7 14.3L27.9 58L-27.9 58L-62.7 14.3L-50.3 -40.1Z" fill="none" stroke="#e4d1d1" stroke-width="1"></path></g><g transform="translate(430 204)"><path d="M0 -49L38.3 -30.6L47.8 10.9L21.3 44.1L-21.3 44.1L-47.8 10.9L-38.3 -30.6Z" fill="none" stroke="#e4d1d1" stroke-width="1"></path></g><g transform="translate(244 417)"><path d="M0 -56L43.8 -34.9L54.6 12.5L24.3 50.5L-24.3 50.5L-54.6 12.5L-43.8 -34.9Z" stroke="#e4d1d1" fill="none" stroke-width="1"></path></g><g transform="translate(98 121)"><path d="M0 -36L28.1 -22.4L35.1 8L15.6 32.4L-15.6 32.4L-35.1 8L-28.1 -22.4Z" stroke="#e4d1d1" fill="none" stroke-width="1"></path></g><g transform="translate(510 388)"><path d="M0 -49L38.3 -30.6L47.8 10.9L21.3 44.1L-21.3 44.1L-47.8 10.9L-38.3 -30.6Z" stroke="#e4d1d1" fill="none" stroke-width="1"></path></g><g transform="translate(184 255)"><path d="M0 -14L10.9 -8.7L13.6 3.1L6.1 12.6L-6.1 12.6L-13.6 3.1L-10.9 -8.7Z" stroke="#e4d1d1" fill="none" stroke-width="1"></path></g><g transform="translate(47 289)"><path d="M0 -53L41.4 -33L51.7 11.8L23 47.8L-23 47.8L-51.7 11.8L-41.4 -33Z" stroke="#e4d1d1" fill="none" stroke-width="1"></path></g><g transform="translate(322 74)"><path d="M0 -35L27.4 -21.8L34.1 7.8L15.2 31.5L-15.2 31.5L-34.1 7.8L-27.4 -21.8Z" stroke="#e4d1d1" fill="none" stroke-width="1"></path></g><g transform="translate(778 428)"><path d="M0 -10L7.8 -6.2L9.7 2.2L4.3 9L-4.3 9L-9.7 2.2L-7.8 -6.2Z" stroke="#e4d1d1" fill="none" stroke-width="1"></path></g><g transform="translate(701 18)"><path d="M0 -30L23.5 -18.7L29.2 6.7L13 27L-13 27L-29.2 6.7L-23.5 -18.7Z" stroke="#e4d1d1" fill="none" stroke-width="1"></path></g><g transform="translate(663 334)"><path d="M0 -35L27.4 -21.8L34.1 7.8L15.2 31.5L-15.2 31.5L-34.1 7.8L-27.4 -21.8Z" stroke="#e4d1d1" fill="none" stroke-width="1"></path></g><g transform="translate(521 58)"><path d="M0 -33L25.8 -20.6L32.2 7.3L14.3 29.7L-14.3 29.7L-32.2 7.3L-25.8 -20.6Z" stroke="#e4d1d1" fill="none" stroke-width="1"></path></g><g transform="translate(79 477)"><path d="M0 -62L48.5 -38.7L60.4 13.8L26.9 55.9L-26.9 55.9L-60.4 13.8L-48.5 -38.7Z" stroke="#e4d1d1" fill="none" stroke-width="1"></path></g><g transform="translate(648 483)"><path d="M0 -53L41.4 -33L51.7 11.8L23 47.8L-23 47.8L-51.7 11.8L-41.4 -33Z" stroke="#e4d1d1" fill="none" stroke-width="1"></path></g><g transform="translate(559 229)"><path d="M0 -42L32.8 -26.2L40.9 9.3L18.2 37.8L-18.2 37.8L-40.9 9.3L-32.8 -26.2Z" stroke="#e4d1d1" fill="none" stroke-width="1"></path></g><g transform="translate(844 73)"><path d="M0 -22L17.2 -13.7L21.4 4.9L9.5 19.8L-9.5 19.8L-21.4 4.9L-17.2 -13.7Z" stroke="#e4d1d1" fill="none" stroke-width="1"></path></g><g transform="translate(508 524)"><path d="M0 -33L25.8 -20.6L32.2 7.3L14.3 29.7L-14.3 29.7L-32.2 7.3L-25.8 -20.6Z" stroke="#e4d1d1" fill="none" stroke-width="1"></path></g><g transform="translate(312 302)"><path d="M0 -19L14.9 -11.8L18.5 4.2L8.2 17.1L-8.2 17.1L-18.5 4.2L-14.9 -11.8Z" stroke="#e4d1d1" fill="none" stroke-width="1"></path></g><g transform="translate(788 285)"><path d="M0 -37L28.9 -23.1L36.1 8.2L16.1 33.3L-16.1 33.3L-36.1 8.2L-28.9 -23.1Z" stroke="#e4d1d1" fill="none" stroke-width="1"></path></g><g transform="translate(359 535)"><path d="M0 -53L41.4 -33L51.7 11.8L23 47.8L-23 47.8L-51.7 11.8L-41.4 -33Z" stroke="#e4d1d1" fill="none" stroke-width="1"></path></g><g transform="translate(937 533)"><path d="M0 -28L21.9 -17.5L27.3 6.2L12.1 25.2L-12.1 25.2L-27.3 6.2L-21.9 -17.5Z" stroke="#e4d1d1" fill="none" stroke-width="1"></path></g><g transform="translate(691 165)"><path d="M0 -20L15.6 -12.5L19.5 4.5L8.7 18L-8.7 18L-19.5 4.5L-15.6 -12.5Z" stroke="#e4d1d1" fill="none" stroke-width="1"></path></g><g transform="translate(947 330)"><path d="M0 -13L10.2 -8.1L12.7 2.9L5.6 11.7L-5.6 11.7L-12.7 2.9L-10.2 -8.1Z" stroke="#e4d1d1" fill="none" stroke-width="1"></path></g><g transform="translate(169 12)"><path d="M0 -48L37.5 -29.9L46.8 10.7L20.8 43.2L-20.8 43.2L-46.8 10.7L-37.5 -29.9Z" stroke="#e4d1d1" fill="none" stroke-width="1"></path></g><g transform="translate(958 12)"><path d="M0 -54L42.2 -33.7L52.6 12L23.4 48.7L-23.4 48.7L-52.6 12L-42.2 -33.7Z" stroke="#e4d1d1" fill="none" stroke-width="1"></path></g></g></svg>