<svg xmlns="http://www.w3.org/2000/svg" version="1.1" xmlns:xlink="http://www.w3.org/1999/xlink" width="168.6" height="153.5"><svg version="1.1" id="SvgjsSvg1022" xmlns:xodm="http://www.corel.com/coreldraw/odm/2003" xmlns="http://www.w3.org/2000/svg" xmlns:xlink="http://www.w3.org/1999/xlink" x="0px" y="0px" viewBox="0 0 168.6 153.5" style="enable-background:new 0 0 168.6 153.5;" xml:space="preserve">
<style type="text/css">
	.st0{fill-rule:evenodd;clip-rule:evenodd;fill:#082044;}
</style>
<g id="SvgjsG1021">
	<g id="SvgjsG1020">
		<path class="st0" d="M77.4,115.3H77c0-1.1-0.5-2-0.8-3.1c-1.5-5.5-5.1-16.1-6.2-20.7h-7.4l-7.1,23.9c0,0.1-0.1,0.3-0.1,0.4
			l-0.1,0.3c0,0,0,0.1-0.1,0.2c-0.4-1.9-1.2-4-1.7-6L50.3,98c-0.4-1.6-1.4-4.6-1.4-6.5h-8.4l5,17.5c1.4,4.6,4.1,13.5,5.1,17.7
			l7.2,0.2c1.1,0,1.6-3.6,2.3-5.6c0.8-2.4,5.8-16.8,5.9-17.9c0.9,0.7,1.7,4.5,2.1,5.6c0.7,2.1,5.3,16.4,5.4,17.7h5.8
			c0.8,0,0.9-0.2,1.7-0.2c0.8-3.4,4.1-13.6,5.3-17.5c1.2-4.2,4.4-13.8,5.3-17.7h-7.2L77.4,115.3L77.4,115.3z"></path>
		<path class="st0" d="M93.5,127.1h6.7l0.2-5.5c0-1.8-0.2-4.3,0-6l0.4-11.3c0.7,0.5,0.8,1.1,1.2,1.9l3.2,6.2c0.7,1.5,1.2,2.8,2,4.2
			c0.7,1.4,1.5,2.6,2.2,4h3.1c0.1-1.1,6.2-12.6,7.6-15.4c0.2-0.5,0.3-0.7,0.6-1.1l0.7-1c0,4.3,0.2,7.9,0.2,12.2l0.2,9.1
			c0,3.3-1.1,2.6,7,2.6c0-4.3-0.4-9.6-0.5-13.2c0-1.5,0.1-3-0.1-4.5l-0.7-17.8c-9.6,0-7.4-1.2-9.8,4.3c-0.5,1.1-6.3,13.2-7,13.7
			c-0.2-1-3.7-7.7-4.5-9.2l-3.4-6.7c-1.4-2.7,0-2.1-8.5-2.1c0,1.8-0.2,2.8-0.2,4.3c0,1.5,0.1,3.1,0,4.6c-0.1,4.4-0.5,8.6-0.5,13.2
			c0,1.8-0.3,2.6-0.2,4.3C93.8,121.3,93.5,123.8,93.5,127.1L93.5,127.1z"></path>
		<path class="st0" d="M1.6,108.8c0,4.8,1.9,9.9,5.1,13.1c4.8,4.7,8.8,5.6,15.8,5.6c3.9,0,8.2-1.2,11.2-3.2c0.9-0.6,2.7-1.7,2.7-2.3
			v-14.9H20.8v6.2h7.9c0,6,0.5,5.6-1.3,6.4c-0.6,0.3-1.1,0.6-1.6,0.8c-2.8,1-6.5,1-9.2-0.1c-8.6-3.2-8.8-15.7-4-20.4
			c3.7-3.6,9.6-4.2,13.8-2.1c1.4,0.7,2.3,1.9,3.4,2.6l4.8-4.1c-0.9-1.8,0-0.8-2.4-2.6c-1.2-0.9-1.8-1.2-3.2-1.9
			c-8.4-4.2-21.3-1.3-25.7,9C2.3,103.1,1.6,106.7,1.6,108.8L1.6,108.8z"></path>
		<path class="st0" d="M152.6,127.8c2.7,0,6.1-0.7,8.1-1.5c1.2-0.5,5.8-2.6,5.8-3.8v-15.1h-14.2c0,3.5-0.5,6.2,0.7,6.2h6.5v5.3
			c0,1.1-4,2.4-5.5,2.4c-3.7,0-6.8-0.5-9.5-3.7c-6.9-8.1-1.7-23.7,10.9-20.3c3.7,1,4.6,2.7,5.3,3.3c1.2-0.6,2.8-2.2,3.9-3.1
			c0.7-0.5,0.5-0.8,1.4-1c-2.6-4.9-12.4-7.1-18.5-5.5c-3.6,0.9-6.1,2.3-8.7,5c-5,5.2-5.8,14.7-3.2,21.1c0.7,1.7,1.4,2.9,2.5,4.2
			C141.5,125.7,146.9,127.8,152.6,127.8L152.6,127.8z"></path>
		<path class="st0" d="M107.4,11.6c0.5,0.6,4.3,2.6,5.3,3.1c-0.5,0.7-0.8,1.3-1.3,2.1c-0.6,0.9-1,1.2-1.6,2
			c-0.7,0.8-0.9,1.2-1.7,1.9l-5.4,5.4c-7.2,7.2-15.5,13.3-24.3,18.4c-0.8,0.4-1.5,0.9-2.3,1.3l-4.6,2.6c-7.6,3.9-14.6,6.8-22.8,9.6
			c-1,0.3-1.8,0.6-2.6,1c-0.6,0.2-0.7,0.3-1.2,0.5c-0.6,0.3-0.8,0.2-1.2,0.7c2.4-0.6,8.7-1.3,12.4-2c15.4-3,33.7-12.3,46.1-22.3
			l7.6-6.8c2.2-2.1,8-7,8.7-9.5c1.3,0.1,4.2,2.9,5.5,3.6c0.1-1.4,0.5-3.3,0.7-4.8l2.2-15.1c-1.1,0.1-14.6,6.2-17,7.3
			c-0.5,0.2-0.7,0.3-1.1,0.5L107.4,11.6L107.4,11.6z"></path>
		<path class="st0" d="M106.5,46v25c0,1.9,0.2,2.7,0.2,4.6h11.8v-47c-0.7,0.2-3.3,2.5-4,3.2l-6.9,6.1c-1.5,1.2-0.6,1.7-1,4.5
			C106.4,43.4,106.5,44.7,106.5,46L106.5,46z"></path>
		<path class="st0" d="M89.4,49.8v25.7h12V42.6c-1.2,0.3-8.4,5.1-10.6,6.2C90,49.1,89.4,49,89.4,49.8L89.4,49.8z"></path>
		<path class="st0" d="M72.6,57.2v18.2h11.5v-23C83,52.7,75,57,72.6,57.2z"></path>
		<path class="st0" d="M56.1,62.5v13h11.3v-8.6c0-2.8,0.2-4.7,0.2-7.4c-1.6,0-4.1,1.1-5.7,1.5C60.4,61.4,57.4,62.5,56.1,62.5
			L56.1,62.5z"></path>
		<path class="st0" d="M88.7,148.4c0,3.1-1.1,3.3,1.3,3.4h1.2h0.2l-0.2-8.6c1.6,1.1,2.8,6.2,4.8,6.7c0.7-1.2,1.3-2.3,2-3.5
			c0.4-0.7,0.5-1.1,0.9-1.7c0.2-0.3,0.3-0.5,0.5-0.9c0.1-0.2,0.2-0.3,0.3-0.4c0.4-0.6,0,0,0.3-0.4v8.9h2.6v-13.4
			c-3.6,0-2.9-0.3-3.9,1.4l-3.1,5.6c-0.8-0.6-3.9-6.2-4.1-7h-2.9L88.7,148.4L88.7,148.4z"></path>
		<path class="st0" d="M40.5,66.8v8.6h10.8V64c-0.8,0.4-4.3,0.9-5.5,1.2C43.8,65.6,40.5,65.8,40.5,66.8L40.5,66.8z"></path>
		<path class="st0" d="M122.1,151.8h2.6v-8.6c0.7,0.5,2.7,3.5,3.3,4.4c2.6,3.6,2.7,4.2,3.9,4.3h1.7v-13.4H131v8.6
			c-0.1-0.2-0.3-0.3-0.4-0.5c-0.2-0.2-0.2-0.3-0.4-0.5l-4-5.6c-1.7-2.2-0.7-2-4-2L122.1,151.8L122.1,151.8z"></path>
		<path class="st0" d="M15.8,151.8c0.8-0.2,0.5-1.5,0.5-7.2c0-0.8-0.2-0.9-0.2-1.7c1.5,1,6.2,8.9,7.2,8.9h1.9v-13.4h-2.6v8.6
			l-4.9-6.6c-1.6-2.3-0.7-2-4-2v13.4L15.8,151.8L15.8,151.8z"></path>
		<path class="st0" d="M46.5,151.8h8.9v-2.4h-6.2v-3.1c6.1,0,5.3,0.6,5.3-2.4h-5.3v-3.1c6.9,0,6,0.7,6-2.4h-8.6V151.8z"></path>
		<path class="st0" d="M108.2,151.8h8.2c1,0,0.7-0.7,0.7-2.4h-6.2v-3.1h5.3v-2.4h-5.3v-3.1c6.9,0,6,0.7,6-2.4h-8.6L108.2,151.8
			L108.2,151.8z"></path>
		<path class="st0" d="M59.9,142c0,4.3,4.9,3.4,7,5.8c-0.9,3.8-4.6,1.1-6,0.2c-0.4,0.6-0.7,1-1.4,1.2c0.4,1.4,2.2,2.4,4.1,2.6h2
			c2.1-0.3,4-1.6,4-4.3c0-4.3-6.5-2.8-7.2-6c2.3-2.7,4.8,0.1,5.3,0c0.9-0.5,1.3-0.6,1.4-1.9c-1.8-0.4-1.7-1.4-5.3-1.4
			C61.6,138.1,59.9,139.8,59.9,142L59.9,142z"></path>
		<path class="st0" d="M152.8,142c0,1.9,0.9,2.8,2.6,3.6l4.1,1.7c0,0.6,0,1.3-0.3,1.7c-0.7,1.3-2.4,0.6-3.5,0.2
			c-0.9-0.3-1-0.5-1.8-0.9c-1.2,0.6-1,0.6-1.7,1.7c3.5,1.8,1.9,1.9,5.5,1.9h0.8c1.7,0,3.8-2.2,3.8-3.8c0-5.1-7-3.2-7-6.5
			c0-0.8,1-1.2,1.7-1.2c1.3,0,2.4,1,3.4,1.2c0.8-0.5,0.7-0.7,1.7-1.2C159.9,137,152.8,137.3,152.8,142L152.8,142z"></path>
		<path class="st0" d="M35.2,151.8h0.1c2.2,0,1.7-0.1,2.8-2.9l3.8-10.6h-2.6c-0.4,1.8-1.9,5.2-2.6,7.5l-1,2.4l-1.8-4.9
			c-0.4-0.9-0.6-1.6-0.9-2.5c-0.3-0.8-1-1.7-1.2-2.4h-2.2c0,1.2,3.1,8.7,3.8,10.4C33.8,149.7,34.3,151.8,35.2,151.8L35.2,151.8z"></path>
		<path class="st0" d="M137.9,140.5l4.3,0.2c0,2.1-0.3,3.3-0.2,5.3c0,1.8,0,3.7,0,5.5c1.3,0.1,0.7,0.2,2.8,0.2h0.1v-11.3l4.1,0.2
			v-2.4h-11L137.9,140.5L137.9,140.5z"></path>
		<path class="st0" d="M73.1,140.8h4.1v10.3c0,0.5,0.2,0.7,0.6,0.7h2.1v-11c5,0,4.3,0.6,4.3-2.4h-11V140.8L73.1,140.8z"></path>
		<path class="st0" d="M5.7,151.8h1.9h0c0.5,0,0.7-0.2,0.7-0.7v-12.7H5.7L5.7,151.8L5.7,151.8z"></path>
	</g>
</g>
</svg><style>@media (prefers-color-scheme: light) { :root { filter: none; } }
@media (prefers-color-scheme: dark) { :root { filter: none; } }
</style></svg>