<svg xmlns="http://www.w3.org/2000/svg" version="1.1" xmlns:xlink="http://www.w3.org/1999/xlink" width="91.5" height="80.3"><svg version="1.1" id="SvgjsSvg1192" xmlns:xodm="http://www.corel.com/coreldraw/odm/2003" xmlns="http://www.w3.org/2000/svg" xmlns:xlink="http://www.w3.org/1999/xlink" x="0px" y="0px" viewBox="0 0 91.5 80.3" style="enable-background:new 0 0 91.5 80.3;" xml:space="preserve">
<style type="text/css">
	.st0{fill-rule:evenodd;clip-rule:evenodd;fill:#082044;}
</style>
<g id="SvgjsG1191">
	<g id="SvgjsG1190">
		<g>
			<path class="st0" d="M70.5,9.8c0.5,0.6,4.3,2.6,5.3,3.1c-0.5,0.7-0.8,1.3-1.3,2.1c-0.6,0.9-1,1.2-1.6,2c-0.7,0.8-0.9,1.2-1.7,1.9
				l-5.4,5.4c-7.2,7.2-15.5,13.3-24.3,18.4c-0.8,0.4-1.5,0.9-2.3,1.3l-4.6,2.6C27,50.5,20,53.4,11.8,56.2c-1,0.3-1.8,0.6-2.6,1
				c-0.6,0.2-0.7,0.3-1.2,0.5c-0.6,0.3-0.8,0.2-1.2,0.7c2.4-0.6,8.7-1.3,12.4-2c15.4-3,33.7-12.3,46.1-22.3l7.6-6.8
				c2.2-2.1,8-7,8.7-9.5c1.3,0.1,4.2,2.9,5.5,3.6c0.1-1.4,0.5-3.3,0.7-4.8L90,1.5c-1.1,0.1-14.6,6.2-17,7.3
				c-0.5,0.2-0.7,0.3-1.1,0.5L70.5,9.8L70.5,9.8z"></path>
			<path class="st0" d="M69.6,44.2v25c0,1.9,0.2,2.7,0.2,4.6h11.8v-47c-0.7,0.2-3.3,2.5-4,3.2l-6.9,6.1c-1.5,1.2-0.6,1.7-1,4.5
				C69.5,41.6,69.6,42.9,69.6,44.2L69.6,44.2z"></path>
			<path class="st0" d="M52.5,48v25.7h12V40.8c-1.2,0.3-8.4,5.1-10.6,6.2C53.1,47.3,52.5,47.2,52.5,48L52.5,48z"></path>
			<path class="st0" d="M35.7,55.4v18.2h11.5v-23C46.1,50.9,38.1,55.2,35.7,55.4z"></path>
			<path class="st0" d="M19.2,60.7v13h11.3v-8.6c0-2.8,0.2-4.7,0.2-7.4c-1.6,0-4.1,1.1-5.7,1.5C23.5,59.6,20.5,60.7,19.2,60.7
				L19.2,60.7z"></path>
			<path class="st0" d="M3.6,65v8.6h10.8V62.2c-0.8,0.4-4.3,0.9-5.5,1.2C6.9,63.8,3.6,64,3.6,65L3.6,65z"></path>
		</g>
	</g>
</g>
</svg><style>@media (prefers-color-scheme: light) { :root { filter: none; } }
@media (prefers-color-scheme: dark) { :root { filter: none; } }
</style></svg>