<?xml version="1.0" encoding="utf-8"?>
<!-- Generator: Adobe Illustrator 27.8.0, SVG Export Plug-In . SVG Version: 6.00 Build 0)  -->
<svg version="1.1" id="Capa_1" xmlns:xodm="http://www.corel.com/coreldraw/odm/2003"
	 xmlns="http://www.w3.org/2000/svg" xmlns:xlink="http://www.w3.org/1999/xlink" x="0px" y="0px" viewBox="0 0 277 79.9"
	 style="enable-background:new 0 0 277 79.9;" xml:space="preserve">
<style type="text/css">
	.st0{fill-rule:evenodd;clip-rule:evenodd;fill:#082044;}
</style>
<g id="Capa_x0020_1">
	<g id="_105553224778368">
		<g>
			<path class="st0" d="M72.3,11.3c0.5,0.6,4.3,2.6,5.3,3.1c-0.5,0.7-0.8,1.3-1.3,2.1c-0.6,0.9-1,1.2-1.6,2
				c-0.7,0.8-0.9,1.2-1.7,1.9l-5.4,5.4C60.4,33,52.1,39.1,43.3,44.2c-0.8,0.4-1.5,0.9-2.3,1.3l-4.6,2.6c-7.6,3.9-14.6,6.8-22.8,9.6
				c-1,0.3-1.8,0.6-2.6,1c-0.6,0.2-0.7,0.3-1.2,0.5c-0.6,0.3-0.8,0.2-1.2,0.7c2.4-0.6,8.7-1.3,12.4-2c15.4-3,33.7-12.3,46.1-22.3
				l7.6-6.8c2.2-2.1,8-7,8.7-9.5c1.3,0.1,4.2,2.9,5.5,3.6c0.1-1.4,0.5-3.3,0.7-4.8L91.8,3c-1.1,0.1-14.6,6.2-17,7.3
				c-0.5,0.2-0.7,0.3-1.1,0.5L72.3,11.3L72.3,11.3z"/>
			<path class="st0" d="M71.4,45.7v25c0,1.9,0.2,2.7,0.2,4.6h11.8v-47c-0.7,0.2-3.3,2.5-4,3.2l-6.9,6.1c-1.5,1.2-0.6,1.7-1,4.5
				C71.3,43.1,71.4,44.4,71.4,45.7L71.4,45.7z"/>
			<path class="st0" d="M54.3,49.5v25.7h12V42.3c-1.2,0.3-8.4,5.1-10.6,6.2C54.9,48.8,54.3,48.7,54.3,49.5L54.3,49.5z"/>
			<path class="st0" d="M37.5,56.9v18.2H49v-23C47.9,52.4,39.9,56.7,37.5,56.9z"/>
			<path class="st0" d="M21,62.2v13h11.3v-8.6c0-2.8,0.2-4.7,0.2-7.4c-1.6,0-4.1,1.1-5.7,1.5C25.3,61.1,22.3,62.2,21,62.2L21,62.2z"
				/>
			<path class="st0" d="M5.4,66.5v8.6h10.8V63.7c-0.8,0.4-4.3,0.9-5.5,1.2C8.7,65.3,5.4,65.5,5.4,66.5L5.4,66.5z"/>
		</g>
		<g>
			<path class="st0" d="M182.1,33.4h-0.4c0-1.1-0.5-2-0.8-3.1c-1.5-5.5-5.1-16.1-6.2-20.7h-7.4l-7.1,23.9c0,0.1-0.1,0.3-0.1,0.4
				l-0.1,0.3c0,0,0,0.1-0.1,0.2c-0.4-1.9-1.2-4-1.7-6L155,16.1c-0.4-1.6-1.4-4.6-1.4-6.5h-8.4l5,17.5c1.4,4.6,4.1,13.5,5.1,17.7
				l7.2,0.2c1.1,0,1.6-3.6,2.3-5.6c0.8-2.4,5.8-16.8,5.9-17.9c0.9,0.7,1.7,4.5,2.1,5.6c0.7,2.1,5.3,16.4,5.4,17.7h5.8
				c0.8,0,0.9-0.2,1.7-0.2c0.8-3.4,4.1-13.6,5.3-17.5c1.2-4.2,4.4-13.8,5.3-17.7h-7.2L182.1,33.4L182.1,33.4z"/>
			<path class="st0" d="M198.2,45.2h6.7l0.2-5.5c0-1.8-0.2-4.3,0-6l0.4-11.3c0.7,0.5,0.8,1.1,1.2,1.9l3.2,6.2c0.7,1.5,1.2,2.8,2,4.2
				c0.7,1.4,1.5,2.6,2.2,4h3.1c0.1-1.1,6.2-12.6,7.6-15.4c0.2-0.5,0.3-0.7,0.6-1.1l0.7-1c0,4.3,0.2,7.9,0.2,12.2l0.2,9.1
				c0,3.3-1.1,2.6,7,2.6c0-4.3-0.4-9.6-0.5-13.2c0-1.5,0.1-3-0.1-4.5l-0.7-17.8c-9.6,0-7.4-1.2-9.8,4.3c-0.5,1.1-6.3,13.2-7,13.7
				c-0.2-1-3.7-7.7-4.5-9.2l-3.4-6.7c-1.4-2.7,0-2.1-8.5-2.1c0,1.8-0.2,2.8-0.2,4.3s0.1,3.1,0,4.6c-0.1,4.4-0.5,8.6-0.5,13.2
				c0,1.8-0.3,2.6-0.2,4.3C198.5,39.4,198.2,41.9,198.2,45.2L198.2,45.2z"/>
			<path class="st0" d="M106.3,26.9c0,4.8,1.9,9.9,5.1,13.1c4.8,4.7,8.8,5.6,15.8,5.6c3.9,0,8.2-1.2,11.2-3.2
				c0.9-0.6,2.7-1.7,2.7-2.3V25.2h-15.6v6.2h7.9c0,6,0.5,5.6-1.3,6.4c-0.6,0.3-1.1,0.6-1.6,0.8c-2.8,1-6.5,1-9.2-0.1
				c-8.6-3.2-8.8-15.7-4-20.4c3.7-3.6,9.6-4.2,13.8-2.1c1.4,0.7,2.3,1.9,3.4,2.6l4.8-4.1c-0.9-1.8,0-0.8-2.4-2.6
				c-1.2-0.9-1.8-1.2-3.2-1.9c-8.4-4.2-21.3-1.3-25.7,9C107,21.2,106.3,24.8,106.3,26.9L106.3,26.9z"/>
			<path class="st0" d="M257.3,45.9c2.7,0,6.1-0.7,8.1-1.5c1.2-0.5,5.8-2.6,5.8-3.8V25.5H257c0,3.5-0.5,6.2,0.7,6.2h6.5V37
				c0,1.1-4,2.4-5.5,2.4c-3.7,0-6.8-0.5-9.5-3.7c-6.9-8.1-1.7-23.7,10.9-20.3c3.7,1,4.6,2.7,5.3,3.3c1.2-0.6,2.8-2.2,3.9-3.1
				c0.7-0.5,0.5-0.8,1.4-1c-2.6-4.9-12.4-7.1-18.5-5.5c-3.6,0.9-6.1,2.3-8.7,5c-5,5.2-5.8,14.7-3.2,21.1c0.7,1.7,1.4,2.9,2.5,4.2
				C246.2,43.8,251.6,45.9,257.3,45.9L257.3,45.9z"/>
			<path class="st0" d="M193.4,66.5c0,3.1-1.1,3.3,1.3,3.4h1.2h0.2l-0.2-8.6c1.6,1.1,2.8,6.2,4.8,6.7c0.7-1.2,1.3-2.3,2-3.5
				c0.4-0.7,0.5-1.1,0.9-1.7c0.2-0.3,0.3-0.5,0.5-0.9c0.1-0.2,0.2-0.3,0.3-0.4c0.4-0.6,0,0,0.3-0.4V70h2.6V56.6
				c-3.6,0-2.9-0.3-3.9,1.4l-3.1,5.6c-0.8-0.6-3.9-6.2-4.1-7h-2.9L193.4,66.5L193.4,66.5z"/>
			<path class="st0" d="M226.8,69.9h2.6v-8.6c0.7,0.5,2.7,3.5,3.3,4.4c2.6,3.6,2.7,4.2,3.9,4.3h1.7V56.6h-2.6v8.6
				c-0.1-0.2-0.3-0.3-0.4-0.5c-0.2-0.2-0.2-0.3-0.4-0.5l-4-5.6c-1.7-2.2-0.7-2-4-2L226.8,69.9L226.8,69.9z"/>
			<path class="st0" d="M120.5,69.9c0.8-0.2,0.5-1.5,0.5-7.2c0-0.8-0.2-0.9-0.2-1.7c1.5,1,6.2,8.9,7.2,8.9h1.9V56.5h-2.6v8.6
				l-4.9-6.6c-1.6-2.3-0.7-2-4-2v13.4H120.5L120.5,69.9z"/>
			<path class="st0" d="M151.2,69.9h8.9v-2.4h-6.2v-3.1c6.1,0,5.3,0.6,5.3-2.4h-5.3v-3.1c6.9,0,6,0.7,6-2.4h-8.6v13.4H151.2z"/>
			<path class="st0" d="M212.9,69.9h8.2c1,0,0.7-0.7,0.7-2.4h-6.2v-3.1h5.3V62h-5.3v-3.1c6.9,0,6,0.7,6-2.4H213L212.9,69.9
				L212.9,69.9z"/>
			<path class="st0" d="M164.6,60.1c0,4.3,4.9,3.4,7,5.8c-0.9,3.8-4.6,1.1-6,0.2c-0.4,0.6-0.7,1-1.4,1.2c0.4,1.4,2.2,2.4,4.1,2.6h2
				c2.1-0.3,4-1.6,4-4.3c0-4.3-6.5-2.8-7.2-6c2.3-2.7,4.8,0.1,5.3,0c0.9-0.5,1.3-0.6,1.4-1.9c-1.8-0.4-1.7-1.4-5.3-1.4
				C166.3,56.2,164.6,57.9,164.6,60.1L164.6,60.1z"/>
			<path class="st0" d="M257.5,60.1c0,1.9,0.9,2.8,2.6,3.6l4.1,1.7c0,0.6,0,1.3-0.3,1.7c-0.7,1.3-2.4,0.6-3.5,0.2
				c-0.9-0.3-1-0.5-1.8-0.9c-1.2,0.6-1,0.6-1.7,1.7c3.5,1.8,1.9,1.9,5.5,1.9h0.8c1.7,0,3.8-2.2,3.8-3.8c0-5.1-7-3.2-7-6.5
				c0-0.8,1-1.2,1.7-1.2c1.3,0,2.4,1,3.4,1.2c0.8-0.5,0.7-0.7,1.7-1.2C264.6,55.1,257.5,55.4,257.5,60.1L257.5,60.1z"/>
			<path class="st0" d="M139.9,69.9L139.9,69.9c2.3,0,1.8-0.1,2.9-2.9l3.8-10.6H144c-0.4,1.8-1.9,5.2-2.6,7.5l-1,2.4l-1.8-4.9
				c-0.4-0.9-0.6-1.6-0.9-2.5c-0.3-0.8-1-1.7-1.2-2.4h-2.2c0,1.2,3.1,8.7,3.8,10.4C138.5,67.8,139,69.9,139.9,69.9L139.9,69.9z"/>
			<path class="st0" d="M242.6,58.6l4.3,0.2c0,2.1-0.3,3.3-0.2,5.3c0,1.8,0,3.7,0,5.5c1.3,0.1,0.7,0.2,2.8,0.2h0.1V58.5l4.1,0.2
				v-2.4h-11L242.6,58.6L242.6,58.6z"/>
			<path class="st0" d="M177.8,58.9h4.1v10.3c0,0.5,0.2,0.7,0.6,0.7h2.1v-11c5,0,4.3,0.6,4.3-2.4h-11L177.8,58.9L177.8,58.9z"/>
			<path class="st0" d="M110.4,69.9h1.9l0,0c0.5,0,0.7-0.2,0.7-0.7V56.5h-2.6V69.9L110.4,69.9z"/>
		</g>
	</g>
</g>
</svg>
